<?xml version="1.0" encoding="UTF-8"?>
<svg xmlns="http://www.w3.org/2000/svg" xmlns:xlink="http://www.w3.org/1999/xlink" viewBox="0 0 40 40" width="40px" height="40px">
<g id="surface47718567">
<path style=" stroke:none;fill-rule:nonzero;fill:rgb(255,0,0);fill-opacity:1;" d="M 10.75 37.277344 L 10.75 3.277344 L 17.25 3.277344 L 17.25 36.277344 Z M 10.75 37.277344 "/>
<path style=" stroke:none;fill-rule:nonzero;fill:rgb(60.000002%,18.039216%,18.039216%);fill-opacity:1;" d="M 10.75 37.527344 C 10.691406 37.527344 10.632812 37.507812 10.585938 37.46875 C 10.53125 37.421875 10.5 37.351562 10.5 37.277344 L 10.5 3.277344 C 10.5 3.140625 10.613281 3.027344 10.75 3.027344 L 17.25 3.027344 C 17.386719 3.027344 17.5 3.140625 17.5 3.277344 L 17.5 36.277344 C 17.5 36.402344 17.410156 36.507812 17.289062 36.527344 L 10.789062 37.527344 C 10.777344 37.527344 10.761719 37.527344 10.75 37.527344 Z M 11 3.527344 L 11 36.988281 L 17 36.0625 L 17 3.527344 Z M 11 3.527344 "/>
<path style=" stroke:none;fill-rule:nonzero;fill:rgb(255,0,0);fill-opacity:1;" d="M 22.75 3.277344 L 22.75 18.777344 L 28.75 36.777344 L 28.75 3.277344 Z M 22.75 3.277344 "/>
<path style=" stroke:none;fill-rule:nonzero;fill:rgb(60.000002%,18.039216%,18.039216%);fill-opacity:1;" d="M 28.75 37.027344 C 28.644531 37.027344 28.546875 36.960938 28.511719 36.859375 L 22.511719 18.859375 C 22.503906 18.832031 22.5 18.804688 22.5 18.777344 L 22.5 3.277344 C 22.5 3.140625 22.613281 3.027344 22.75 3.027344 L 28.75 3.027344 C 28.886719 3.027344 29 3.140625 29 3.277344 L 29 36.777344 C 29 36.902344 28.910156 37.003906 28.789062 37.023438 C 28.777344 37.027344 28.761719 37.027344 28.75 37.027344 Z M 23 18.738281 L 28.5 35.238281 L 28.5 3.527344 L 23 3.527344 Z M 23 18.738281 "/>
<path style=" stroke:none;fill-rule:nonzero;fill:rgb(255,0,0);fill-opacity:1;" d="M 17.25 3.277344 L 10.777344 3.277344 L 22.25 36.277344 L 28.75 36.777344 Z M 17.25 3.277344 "/>
<path style=" stroke:none;fill-rule:nonzero;fill:rgb(60.000002%,18.039216%,18.039216%);fill-opacity:1;" d="M 28.75 37.027344 C 28.742188 37.027344 28.738281 37.027344 28.730469 37.027344 L 22.230469 36.527344 C 22.132812 36.519531 22.046875 36.453125 22.011719 36.359375 L 10.539062 3.359375 C 10.511719 3.285156 10.527344 3.199219 10.574219 3.132812 C 10.617188 3.066406 10.695312 3.027344 10.777344 3.027344 L 17.25 3.027344 C 17.355469 3.027344 17.453125 3.097656 17.488281 3.199219 L 28.988281 36.699219 C 29.015625 36.777344 29 36.863281 28.949219 36.929688 C 28.902344 36.992188 28.828125 37.027344 28.75 37.027344 Z M 22.433594 36.042969 L 28.390625 36.5 L 17.070312 3.527344 L 11.128906 3.527344 Z M 22.433594 36.042969 "/>
</g>
</svg>
