<?xml version="1.0" encoding="UTF-8"?>
<svg xmlns="http://www.w3.org/2000/svg" xmlns:xlink="http://www.w3.org/1999/xlink" viewBox="0 0 80 80" width="80px" height="80px">
<g id="surface47718562">
<path style=" stroke:none;fill-rule:nonzero;fill:rgb(90.588236%,29.803923%,23.529412%);fill-opacity:1;" d="M 21.5 74.558594 L 21.5 6.558594 L 34.5 6.558594 L 34.5 72.558594 Z M 21.5 74.558594 "/>
<path style=" stroke:none;fill-rule:nonzero;fill:rgb(60.000002%,18.039216%,18.039216%);fill-opacity:1;" d="M 21.5 75.058594 C 21.382812 75.058594 21.265625 75.015625 21.175781 74.9375 C 21.0625 74.839844 21 74.703125 21 74.558594 L 21 6.558594 C 21 6.28125 21.222656 6.058594 21.5 6.058594 L 34.5 6.058594 C 34.777344 6.058594 35 6.28125 35 6.558594 L 35 72.558594 C 35 72.804688 34.820312 73.015625 34.574219 73.050781 L 21.574219 75.050781 C 21.550781 75.054688 21.523438 75.058594 21.5 75.058594 Z M 22 7.058594 L 22 73.972656 L 34 72.128906 L 34 7.058594 Z M 22 7.058594 "/>
<path style=" stroke:none;fill-rule:nonzero;fill:rgb(90.588236%,29.803923%,23.529412%);fill-opacity:1;" d="M 45.5 6.558594 L 45.5 37.558594 L 57.5 73.558594 L 57.5 6.558594 Z M 45.5 6.558594 "/>
<path style=" stroke:none;fill-rule:nonzero;fill:rgb(60.000002%,18.039216%,18.039216%);fill-opacity:1;" d="M 57.5 74.058594 C 57.289062 74.058594 57.09375 73.921875 57.023438 73.714844 L 45.023438 37.714844 C 45.007812 37.664062 45 37.609375 45 37.558594 L 45 6.558594 C 45 6.28125 45.222656 6.058594 45.5 6.058594 L 57.5 6.058594 C 57.777344 6.058594 58 6.28125 58 6.558594 L 58 73.558594 C 58 73.800781 57.820312 74.011719 57.578125 74.050781 C 57.554688 74.054688 57.527344 74.058594 57.5 74.058594 Z M 46 37.476562 L 57 70.476562 L 57 7.058594 L 46 7.058594 Z M 46 37.476562 "/>
<path style=" stroke:none;fill-rule:nonzero;fill:rgb(90.588236%,29.803923%,23.529412%);fill-opacity:1;" d="M 34.5 6.558594 L 21.554688 6.558594 L 44.5 72.558594 L 57.5 73.558594 Z M 34.5 6.558594 "/>
<path style=" stroke:none;fill-rule:nonzero;fill:rgb(60.000002%,18.039216%,18.039216%);fill-opacity:1;" d="M 57.5 74.058594 C 57.488281 74.058594 57.476562 74.058594 57.460938 74.054688 L 44.460938 73.054688 C 44.265625 73.039062 44.09375 72.910156 44.027344 72.722656 L 21.078125 6.722656 C 21.027344 6.570312 21.050781 6.398438 21.144531 6.265625 C 21.238281 6.136719 21.390625 6.058594 21.550781 6.058594 L 34.5 6.058594 C 34.714844 6.058594 34.902344 6.191406 34.972656 6.394531 L 57.972656 73.394531 C 58.027344 73.554688 57.996094 73.730469 57.894531 73.863281 C 57.800781 73.984375 57.652344 74.058594 57.5 74.058594 Z M 44.863281 72.082031 L 56.78125 73 L 34.144531 7.058594 L 22.257812 7.058594 Z M 44.863281 72.082031 "/>
</g>
</svg>
